<?xml version="1.0" encoding="UTF-8"?>
<svg id="Layer_1" data-name="Layer 1" xmlns="http://www.w3.org/2000/svg" viewBox="0 0 367.49 367.76">
  <defs>
    <style>
      .cls-1 {
        fill: none;
      }

      .cls-2 {
        fill: #cc8630;
      }

      .cls-3 {
        fill: #f8c505;
      }
    </style>
  </defs>
  <path class="cls-3" d="M60.22.7c22.3,13,39.96,30.81,56.91,49.46,3.72,4.1,7.13,8.46,10.68,12.71,2.31,2.76,5.15,3.41,7.9,1.46,3.52-2.49,7.32-2.97,11.36-2.98,9.16-.02,18.33-.03,27.49-.02,14.77.01,27.31,5.69,37.7,15.81,23.97,23.34,33.98,51.94,31.13,85.16-.63,7.38-2.86,14.34-5.68,21.13-.43,1.04-.81,2.23-2.61,2.51-1.45-1.61-1.3-3.86-1.38-5.86-1.13-27.69-13.52-49.15-35.37-65.83-10.46-7.98-22.26-14.1-31.78-23.34-4.94-4.8-10-9.47-15.22-14.4,4.21,9.48,11.05,16.65,18.46,23.27,10.17,9.1,20.76,17.74,30.86,26.92,16.74,15.21,25.72,34.1,25.85,56.93.04,7.01-1.79,13.52-5.61,19.39-2.72,4.18-5.6,8.26-8.56,12.28-1.12,1.53-1.35,2.81-.55,4.56,9.05,19.66,18.03,39.36,27.05,59.04.68,1.49,1.35,3.06,3.02,3.71,2.25-.59,2.7-2.55,3.34-4.17,11.01-28.04,23.85-55.29,35.78-82.94,18.59-43.06,37.39-86.04,56.01-129.1,1.32-3.06,3.08-4.36,6.39-4.29,7.59.15,15.18.05,24.09.05l-125.23,305.58c-2.71-.57-2.93-2.44-3.52-3.85-13.12-31.51-26.2-63.04-39.29-94.57-3.96-9.53-8.02-19.03-11.84-28.62-1.67-4.2-3.63-5.63-8.17-3.28-18.08,9.36-36.16,18.57-50.17,33.97-7.97,8.77-8.76,20.81-1.47,30.32.72.94,1.51,1.82.51,3.78-5.19-1.18-10.81-2.85-13.53-7.58-12.04-20.94-13.15-30.63,2.59-52.58,6.7-9.33,15.98-15.93,24.74-23.12,4.74-3.89,8.9-8.51,13.08-13.04,4.37-4.74,4.94-11.74,1.73-16.61-2.79-4.23-7.94-5.73-14.3-3.89-4.29,1.24-8.45,2.96-12.76,4.13-2.33.63-4.74.92-7.15.83-6.54-.23-7.56-2.11-11.35-11.3-.8-1.95-.63-1.73-1.1-2.94-.34-.89-.84-1.7-1.36-2.5-1.39-2.12-.87-4.88-1.03-5.55.16-4.97.55-4.45-4.04-9.3.25-4.21-2.09-6.25-4.9-8.65-6.58-5.63-6.54-5.76-1.14-12.78,2.14-2.78,4.07-5.67,5.61-8.84,2.1-4.32,2.14-8.38.26-12.94-.05-.12-.1-.24-.14-.35-5.02-12.51-2.65-24.23,5.19-34.92,4.66-6.35,4.88-6.52.53-13.07-15.23-22.94-32-44.68-50.81-64.82-1.22-1.3-2.75-2.48-2.96-4.52,1.23-2.02,2.89-.91,4.75-.47M193.87,215.05c3.91-4,3.2-3.13,8.31-7.23,8.54-6.96,11.07-15.9,11.39-26.12.49-15.69-7.94-26.38-19.87-34.84-13.21-9.37-27.82-16.36-42.16-23.76-15.48-7.99-28.37-18.13-32.31-36.33-.09-.4-.58-.71-1.03-1.23-1.61,1.47-1.13,3.09-.83,4.68,1.23,6.5,3.7,12.45,7.97,17.54,11.02,13.12,25.22,22,40.08,30,11.14,6,22.38,11.85,31.68,20.66,10.46,9.9,12.93,26.08,5.42,38.45-3.52,5.81-7.81,9.15-13.94,14.94-12.13,11.15-26.02,17.51-37.73,27.4,17.07-2.83,27.89-10.29,40.11-21.61M167.04,186.61c4.72,5.11,2.46,12.03,4.36,18.26,2.85-1.56,3.38-4.09,4.05-6.35,1.63-5.53.42-11.26.87-16.88.25-3.04-.86-5.5-2.85-7.7-6.93-7.66-13.86-15.3-22.12-21.6-7.67-5.85-15.3-11.78-22.86-17.78-10.14-8.04-16.25-18.33-17.21-31.43-.12-1.59-.13-3.27-1.54-4.91-.4,6.35-.47,12.37.59,18.25,1.65,9.19-.23,17.48-5.24,25.2-3.38,5.22-3.22,7.28,1.71,10.88,2.46,1.8,3.74,3.51,2.76,6.61-.81,2.57.33,4.1,3.03,4.58,2.04.36,3.18,2.07,2.13,3.65-3.78,5.7.18,10.25,2.06,14.92,2.62,6.52,5.84,7.34,12.6,4.64,4.15-1.65,8.37-3.13,12.65-4.39,8.59-2.52,17.14-3.94,25.01,4.05M171.18,150.47c-1.44-.63-2.48-2.13-5.23-2.12,10.63,9.06,20.55,17.78,26.76,29.79-2.85-12.35-11.99-19.76-21.53-27.67Z"/>
  <path class="cls-2" d="M213.2,186.74c-.97,8.12-3.92,15.28-11.02,21.07-5.11,4.1-4.4,3.24-8.31,7.24l-2.9,2.55c-12.22,11.32-23.04,18.78-40.11,21.61,11.71-9.89,25.6-16.25,37.73-27.4,6.13-5.79,10.41-9.13,13.94-14.94,2.4-3.95,3.78-8.29,4.2-12.68l-37.36-14.76c1.38,1.49,2.75,3,4.11,4.5,2,2.21,3.1,4.67,2.86,7.71-.46,5.62.76,11.35-.88,16.88-.67,2.26-1.2,4.79-4.05,6.35-1.9-6.23.35-13.15-4.37-18.26-7.87-7.98-16.41-6.57-25.01-4.05-4.28,1.26-8.5,2.74-12.65,4.39-6.76,2.7-9.98,1.88-12.6-4.64-1.88-4.67-5.84-9.23-2.06-14.92,1.05-1.58-.09-3.29-2.13-3.65-2.7-.48-3.84-2.01-3.03-4.58.98-3.11-.3-4.81-2.76-6.61-4.92-3.59-5.09-5.66-1.71-10.88,5.01-7.72,6.9-16.01,5.25-25.2-1.06-5.89-1-11.91-.6-18.26.02.02.03.04.05.06l-1.29-14.38c-7.68,10.61-9.95,22.23-4.99,34.62.05.11.1.23.15.35,1.87,4.55,1.83,8.62-.26,12.93-1.55,3.18-3.48,6.07-5.61,8.85-5.4,7.02-5.45,7.15,1.13,12.78,2.81,2.4,5.15,4.44,4.91,8.65,4.59,4.85,4.2,4.32,4.04,9.29.16.67-.36,3.43,1.03,5.55.52.8,1.02,1.61,1.36,2.5.47,1.21.3.99,1.1,2.95,3.78,9.19,4.81,11.07,11.34,11.3,2.42.08,4.83-.2,7.16-.83,4.31-1.18,8.47-2.9,12.76-4.14,6.36-1.83,11.51-.33,14.3,3.9,3.21,4.86,2.65,11.87-1.73,16.61-4.17,4.52-8.34,9.15-13.08,13.04-8.76,7.18-18.04,13.78-24.74,23.11-15.73,21.94-14.63,31.64-2.59,52.58,2.72,4.72,8.34,6.39,13.53,7.58,1-1.96.21-2.84-.51-3.78-7.29-9.51-6.5-21.55,1.48-30.32,14-15.41,32.09-24.62,50.17-33.97.86-.44,1.62-.75,2.31-.93l29.54-19.48.14.15c.09-.42.26-.84.51-1.26.12-.2.26-.4.41-.61,2.96-4.02,5.84-8.1,8.56-12.28,2.32-3.56,3.9-7.35,4.78-11.35l-12.5-4.94Z"/>
  <path class="cls-1" d="M367.49,62.17l-125.23,305.59c-2.71-.58-2.93-2.44-3.52-3.85-13.12-31.51-26.2-63.04-39.29-94.57-2.74-6.6-5.53-13.18-8.26-19.79l20.4-30.25c.06.18.14.37.23.57,9.05,19.67,18.02,39.36,27.04,59.04.69,1.49,1.36,3.06,3.02,3.71,2.26-.59,2.7-2.55,3.34-4.17,11.01-28.04,23.85-55.29,35.78-82.94,18.59-43.06,37.4-86.03,56.01-129.09,1.32-3.06,3.08-4.36,6.38-4.29,7.59.15,15.18.04,24.1.04Z"/>
  <path class="cls-1" d="M212.27,77.15c-10.39-10.12-22.93-15.8-37.7-15.81-9.16-.01-18.33,0-27.49.02-4.04.01-7.84.49-11.36,2.98-2.75,1.95-5.6,1.3-7.9-1.46-3.56-4.25-6.96-8.62-10.69-12.71C100.19,31.52,82.52,13.7,60.22.7c-1.87-.44-3.52-1.55-4.75.47.21,2.04,1.74,3.22,2.96,4.52,18.8,20.15,35.57,41.88,50.8,64.82,4.35,6.56,4.14,6.72-.52,13.08-.07.1-.15.2-.21.3l1.29,14.38c1.37,1.63,1.38,3.29,1.5,4.86.96,13.1,7.07,23.39,17.21,31.43,7.57,6,15.19,11.92,22.86,17.77,6.64,5.07,12.41,11,18.01,17.1l37.36,14.76c.91-9.38-2.51-19.03-9.62-25.77-9.31-8.81-20.55-14.66-31.68-20.66-14.87-8-29.07-16.88-40.08-30-4.28-5.09-6.75-11.04-7.98-17.54-.3-1.59-.78-3.21.83-4.68.45.52.94.83,1.03,1.23,3.94,18.2,16.83,28.34,32.31,36.33,14.34,7.4,28.95,14.39,42.16,23.76,11.93,8.46,20.36,19.14,19.87,34.84-.05,1.72-.17,3.4-.37,5.04l12.5,4.94c.57-2.59.85-5.28.83-8.04-.13-22.82-9.11-41.71-25.84-56.93-10.1-9.18-20.68-17.82-30.86-26.92-7.41-6.62-14.25-13.79-18.46-23.27,5.22,4.93,10.28,9.61,15.21,14.4,9.53,9.25,21.33,15.36,31.79,23.35,21.84,16.67,34.23,38.13,35.36,65.82.08,2.01-.06,4.25,1.39,5.86,1.79-.28,2.18-1.47,2.61-2.51,2.81-6.79,5.04-13.76,5.67-21.13,2.85-33.22-7.15-61.82-31.13-85.16ZM171.18,150.47c9.54,7.91,18.68,15.32,21.53,27.67-6.21-12.02-16.13-20.73-26.76-29.79,2.76-.01,3.79,1.49,5.23,2.12Z"/>
  <path class="cls-1" d="M225.7,191.68l-12.5-4.94-6.47-2.55-37.36-14.76-55.16-21.79-4.42-49.37-1.29-14.38-.25-2.8L0,150.02l135.48,182.13,55.71-82.6,20.4-30.25,17.68-26.21-3.57-1.41Z"/>
</svg>